<svg id="Слой_1" data-name="Слой 1" xmlns="http://www.w3.org/2000/svg" width="15.15" height="20.66" viewBox="0 0 15.15 20.66"><defs><style>.cls-1{fill:#543019;}</style></defs><title>ягодное</title><path class="cls-1" d="M7.94,154s-0.51,1.58-.51,1.74a0.54,0.54,0,0,0,.19.41,0.71,0.71,0,0,0,.91,0,0.54,0.54,0,0,0,.19-0.41c0-.15-0.51-1.74-0.51-1.74A0.15,0.15,0,0,0,7.94,154Z" transform="translate(-4.42 -145.35)"/><path class="cls-1" d="M11.93,155.24s-0.51,1.58-.51,1.74a0.54,0.54,0,0,0,.19.41,0.71,0.71,0,0,0,.91,0,0.54,0.54,0,0,0,.19-0.41c0-.15-0.51-1.74-0.51-1.74A0.15,0.15,0,0,0,11.93,155.24Z" transform="translate(-4.42 -145.35)"/><path class="cls-1" d="M16,154a0.15,0.15,0,0,0-.27,0s-0.51,1.58-.51,1.74a0.54,0.54,0,0,0,.19.41,0.71,0.71,0,0,0,.91,0,0.54,0.54,0,0,0,.19-0.41C16.49,155.63,16,154,16,154Z" transform="translate(-4.42 -145.35)"/><path class="cls-1" d="M9.57,158s-0.51,1.58-.51,1.74a0.54,0.54,0,0,0,.19.41,0.71,0.71,0,0,0,.91,0,0.54,0.54,0,0,0,.19-0.41c0-.15-0.51-1.74-0.51-1.74A0.15,0.15,0,0,0,9.57,158Z" transform="translate(-4.42 -145.35)"/><path class="cls-1" d="M11.93,160.82s-0.51,1.58-.51,1.74a0.54,0.54,0,0,0,.19.41,0.71,0.71,0,0,0,.91,0,0.54,0.54,0,0,0,.19-0.41c0-.15-0.51-1.74-0.51-1.74A0.15,0.15,0,0,0,11.93,160.82Z" transform="translate(-4.42 -145.35)"/><path class="cls-1" d="M14.3,158s-0.51,1.58-.51,1.74a0.54,0.54,0,0,0,.19.41,0.71,0.71,0,0,0,.91,0,0.54,0.54,0,0,0,.19-0.41c0-.15-0.51-1.74-0.51-1.74A0.15,0.15,0,0,0,14.3,158Z" transform="translate(-4.42 -145.35)"/><path class="cls-1" d="M18.69,151.48a0.76,0.76,0,0,0,.17-0.24c0.16-.19.39-0.3,0.24-0.53a3,3,0,0,0-.81-0.86c-0.13-.07.15,0.44-0.15,0.35a0.76,0.76,0,0,0-.85.11,0.37,0.37,0,0,0-.06.27,2.86,2.86,0,0,1-1.91-.09,0.7,0.7,0,0,1-.3-0.29h0a0.63,0.63,0,0,0-.66-0.5,0.64,0.64,0,0,0-.59.58,2.82,2.82,0,0,1-1.6,2.41,2.82,2.82,0,0,1-1.6-2.41,0.64,0.64,0,0,0-.49-0.56,0.65,0.65,0,0,0-.68.27s-0.71,1-3,.57a0.34,0.34,0,0,0-.06-0.23,1.34,1.34,0,0,0-.93-0.12,1.36,1.36,0,0,0-.64.73,0.63,0.63,0,0,0,.42.66,7.19,7.19,0,0,0-.79,3.64,13,13,0,0,0,2.66,7.13C8.69,164.62,10.57,166,12,166c2.92,0,7.57-5.87,7.57-10.75A7,7,0,0,0,18.69,151.48Zm-0.4,3.78c0,3.91-4.08,9.48-6.3,9.48s-6.3-5.57-6.3-9.48a5.3,5.3,0,0,1,.87-3.36,4.71,4.71,0,0,0,3-.39A4.08,4.08,0,0,0,12,154a0.64,0.64,0,0,0,.42,0,4.09,4.09,0,0,0,2.39-2.35,4.1,4.1,0,0,0,2.62.21A5.23,5.23,0,0,1,18.29,155.26Z" transform="translate(-4.42 -145.35)"/><path class="cls-1" d="M8.28,149.15" transform="translate(-4.42 -145.35)"/><path class="cls-1" d="M6.56,150.71A8,8,0,0,1,12,148.82a8,8,0,0,1,5.43,1.89H19.1c-1.21-1.87-3.93-3.19-7.11-3.19s-5.9,1.32-7.11,3.19H6.56Z" transform="translate(-4.42 -145.35)"/><line class="cls-1" x1="7.57" y1="3.47" x2="7.57" y2="0.65"/><path class="cls-1" d="M12,149.47a0.65,0.65,0,0,1-.65-0.65V146a0.65,0.65,0,0,1,1.3,0v2.82A0.65,0.65,0,0,1,12,149.47Z" transform="translate(-4.42 -145.35)"/></svg>