<svg id="Слой_1" data-name="Слой 1" xmlns="http://www.w3.org/2000/svg" width="18.51" height="21.64" viewBox="0 0 18.51 21.64"><defs><style>.cls-1{fill:#543019;}</style></defs><title>утро</title><path class="cls-1" d="M6.92,82.45A1.35,1.35,0,0,1,8.27,81.1h7.36a1.95,1.95,0,0,0,0-3.89H9.54a0.59,0.59,0,0,1,0-1.18h2.28a2.71,2.71,0,0,0,2.71-2.71V73.15H13.17v0.17a1.35,1.35,0,0,1-1.35,1.35H9.54a1.95,1.95,0,1,0,0,3.89h6.09a0.59,0.59,0,0,1,0,1.18H8.27a2.71,2.71,0,0,0-2.71,2.71v0.17H6.92V82.45Z" transform="translate(-1.33 -73.15)"/><path class="cls-1" d="M19.84,87V84a0.68,0.68,0,0,0-.68-0.68H4.2a0.68,0.68,0,0,0-.68.68v5.58a5.27,5.27,0,0,0,1.74,3.89H1.33v1.35H19.27V93.44H14.81a5.25,5.25,0,0,0,1.7-3.28C18.11,89.85,19.84,88.52,19.84,87Zm-1.35-2.37V87c0,0.72-1.07,1.35-1.93,1.62v-4h1.93Zm-3.29,0v4.89a3.91,3.91,0,0,1-3.9,3.9H8.78a3.91,3.91,0,0,1-3.9-3.9V84.65H15.2Z" transform="translate(-1.33 -73.15)"/></svg>