<svg id="Слой_1" data-name="Слой 1" xmlns="http://www.w3.org/2000/svg" width="17.51" height="21.52" viewBox="0 0 17.51 21.52"><defs><style>.cls-1{fill:#543019;}</style></defs><title>чистый 3</title><path class="cls-1" d="M89.13,16.6a8.2,8.2,0,0,0,2.25-4.2l0.36-1.8a0.67,0.67,0,0,0-.79-0.79l-1.8.36a8,8,0,0,0-5.23,3.54l-0.24.37V12.29l0.24-.36a8.17,8.17,0,0,0,.51-8.19L83.6,2.08a0.71,0.71,0,0,0-1.21,0L81.57,3.73a8.22,8.22,0,0,0-.86,3.66,8.14,8.14,0,0,0,1.37,4.53l0.24,0.37v1.79l-0.24-.37a8,8,0,0,0-5.23-3.54l-1.8-.36a0.67,0.67,0,0,0-.79.79l0.36,1.8a8.22,8.22,0,0,0,6.45,6.45l1.26,0.25v4.16h1.35V19.1l1.26-.25A8.2,8.2,0,0,0,89.13,16.6Zm-7.8.93a6.87,6.87,0,0,1-5.39-5.39l-0.16-.81,0.81,0.16A6.87,6.87,0,0,1,82,16.88l0.16,0.81Zm1.78-6.89L83,10.85l-0.12-.22a6.82,6.82,0,0,1-.1-6.3L83,3.89l0.22,0.44A6.83,6.83,0,0,1,83.12,10.64Zm0.74,7L84,16.88a6.87,6.87,0,0,1,5.39-5.39l0.81-.16-0.16.81a6.87,6.87,0,0,1-5.39,5.39Z" transform="translate(-74.24 -1.75)"/></svg>