<svg id="Слой_1" data-name="Слой 1" xmlns="http://www.w3.org/2000/svg" width="12.99" height="22" viewBox="0 0 12.99 22"><defs><style>.cls-1{fill:#543019;}</style></defs><title>груша</title><path class="cls-1" d="M232.58,84.19a11.33,11.33,0,0,1-1.47-4.31,5.15,5.15,0,0,0-.76-2.31,2.11,2.11,0,0,0-1.38-.7,3.9,3.9,0,0,1,.36-1.19,4.35,4.35,0,0,1,1.24-1.59,0.84,0.84,0,0,0-.93-1.39,5.91,5.91,0,0,0-1.79,2.2l-0.1-.08a3.13,3.13,0,0,0-2.4-2.26,4.51,4.51,0,0,0-.93-0.1,2.88,2.88,0,0,0-2.21.88,0.84,0.84,0,0,0-.16.76,3.44,3.44,0,0,0,2.21,2.42,3.54,3.54,0,0,0,.74.08,6,6,0,0,0,1.87-.34l0.45,0.33c0,0.1,0,.2,0,0.3a2.11,2.11,0,0,0-1.34.7,5.17,5.17,0,0,0-.77,2.32,11.3,11.3,0,0,1-1.47,4.3c-1.68,2.35-2.14,3.57-2,5.47a4.87,4.87,0,0,0,5,4.8h0.17a6.51,6.51,0,0,0,1.29-.08h0.06a6.48,6.48,0,0,0,1.29.08h0.17a4.81,4.81,0,0,0,5-4.8C234.72,87.76,234.27,86.53,232.58,84.19Zm0.66,5.4a3.46,3.46,0,0,1-3.61,3.49h-0.17a5.61,5.61,0,0,1-1-.05,1.55,1.55,0,0,0-.3,0l-0.31,0a5.62,5.62,0,0,1-1,.05h-0.17A3.51,3.51,0,0,1,223,89.58c-0.07-1.44.19-2.35,1.79-4.59a12.32,12.32,0,0,0,1.7-4.84,6.43,6.43,0,0,1,.45-1.67,0.72,0.72,0,0,1,.5-0.25,1,1,0,0,1,1.3,0,0.73,0.73,0,0,1,.52.25,6.39,6.39,0,0,1,.45,1.68,12.31,12.31,0,0,0,1.7,4.83C233.06,87.23,233.32,88.14,233.24,89.58ZM226.33,75a4.68,4.68,0,0,1-1.33.24,2.13,2.13,0,0,1-.45,0,1.83,1.83,0,0,1-1-1.1,1.86,1.86,0,0,1,.92-0.21,3.08,3.08,0,0,1,.64.07A1.7,1.7,0,0,1,226.33,75Z" transform="translate(-221.65 -72.46)"/></svg>