<svg id="Слой_1" data-name="Слой 1" xmlns="http://www.w3.org/2000/svg" width="17.33" height="17.33" viewBox="0 0 17.33 17.33"><defs><style>.cls-1{fill:#543019;}</style></defs><title>топ</title><path class="cls-1" d="M90,148.51H76A1.49,1.49,0,0,0,74.53,150v0.76a5.43,5.43,0,0,0,1.19,3.38,5.53,5.53,0,0,0,2.55,1.75l0.53,0.18a4.94,4.94,0,0,0,2.72,2.13V159a0.5,0.5,0,0,1-.5.5,1.49,1.49,0,0,0-1.49,1.49v0.5H79a0.5,0.5,0,0,0-.5.5v2.51H78a0.5,0.5,0,0,0,0,1H88a0.5,0.5,0,0,0,0-1h-0.5v-2.51a0.5,0.5,0,0,0-.5-0.5h-0.5v-0.5A1.49,1.49,0,0,0,85,159.46a0.5,0.5,0,0,1-.5-0.5v-0.77a4.94,4.94,0,0,0,2.72-2.12l0.55-.18h0a5.41,5.41,0,0,0,3.7-5.13V150A1.49,1.49,0,0,0,90,148.51Zm-13.48,5a4.44,4.44,0,0,1-1-2.76V150a0.5,0.5,0,0,1,.5-0.5H77.6L78.1,154a4.89,4.89,0,0,0,.15.78A4.48,4.48,0,0,1,76.49,153.52Zm3,10.93v-2h6.94v2H79.53Zm4.35-7.12a0.5,0.5,0,0,0-.38.48V159A1.49,1.49,0,0,0,85,160.45a0.5,0.5,0,0,1,.5.5v0.5h-5v-0.5a0.5,0.5,0,0,1,.5-0.5A1.49,1.49,0,0,0,82.5,159v-1.15a0.5,0.5,0,0,0-.38-0.48,3.94,3.94,0,0,1-3-3.39l-0.49-4.43h8.81l-0.49,4.43A3.94,3.94,0,0,1,83.88,157.33Zm6.59-6.57a4.42,4.42,0,0,1-2.73,4.08A4.88,4.88,0,0,0,87.9,154l0.5-4.54H90a0.5,0.5,0,0,1,.5.5v0.76Z" transform="translate(-74.33 -148.31)"/><path class="cls-1" d="M88,165.64H78a0.7,0.7,0,1,1,0-1.39h0.3v-2.31a0.7,0.7,0,0,1,.7-0.7h0.3v-0.3A1.69,1.69,0,0,1,81,159.26a0.3,0.3,0,0,0,.3-0.3v-0.63a5.15,5.15,0,0,1-2.65-2.1l-0.46-.15a5.73,5.73,0,0,1-2.64-1.82,5.63,5.63,0,0,1-1.23-3.51V150A1.69,1.69,0,0,1,76,148.31H90A1.69,1.69,0,0,1,91.67,150v0.76a5.61,5.61,0,0,1-3.84,5.32l-0.49.16a5.15,5.15,0,0,1-2.65,2.1V159a0.3,0.3,0,0,0,.3.3,1.69,1.69,0,0,1,1.69,1.69v0.3H87a0.7,0.7,0,0,1,.7.7v2.31H88A0.7,0.7,0,1,1,88,165.64Zm-9.92-1a0.3,0.3,0,0,0,0,.59H88a0.3,0.3,0,0,0,0-.59h-0.7v-2.71a0.3,0.3,0,0,0-.3-0.3h-0.7v-0.7A1.29,1.29,0,0,0,85,159.66a0.7,0.7,0,0,1-.7-0.7V158l0.14,0A4.74,4.74,0,0,0,87,156l0-.06,0.63-.2a5.21,5.21,0,0,0,3.57-4.95V150A1.29,1.29,0,0,0,90,148.71H76A1.29,1.29,0,0,0,74.73,150v0.76A5.23,5.23,0,0,0,75.88,154a5.32,5.32,0,0,0,2.45,1.69l0.59,0.2L79,156a4.74,4.74,0,0,0,2.61,2l0.14,0V159a0.7,0.7,0,0,1-.7.7,1.29,1.29,0,0,0-1.29,1.29v0.7H79a0.3,0.3,0,0,0-.3.3v2.71H78Zm8.63,0H79.33v-2.42h7.34v2.42Zm-6.94-.4h6.54v-1.62H79.73v1.62Zm6-2.61H80.32v-0.7a0.7,0.7,0,0,1,.7-0.7A1.29,1.29,0,0,0,82.3,159v-1.15a0.3,0.3,0,0,0-.23-0.29A4.14,4.14,0,0,1,78.89,154l-0.52-4.66h9.26L87.11,154a4.14,4.14,0,0,1-3.19,3.56h0a0.3,0.3,0,0,0-.23.29V159A1.29,1.29,0,0,0,85,160.25a0.7,0.7,0,0,1,.7.7v0.7Zm-5-.4h4.56v-0.3a0.3,0.3,0,0,0-.3-0.3A1.69,1.69,0,0,1,83.3,159v-1.15a0.69,0.69,0,0,1,.54-0.68h0a3.73,3.73,0,0,0,2.88-3.22l0.47-4.21H78.82l0.47,4.21a3.73,3.73,0,0,0,2.88,3.22,0.69,0.69,0,0,1,.54.68V159A1.69,1.69,0,0,1,81,160.65a0.3,0.3,0,0,0-.3.3v0.3Zm6.72-6.06,0.11-.4A4.7,4.7,0,0,0,87.7,154l0.52-4.72H90a0.7,0.7,0,0,1,.7.7v0.76A4.62,4.62,0,0,1,87.82,155Zm1.14-5.48-0.49,4.37c0,0.14,0,.28-0.06.41a4.22,4.22,0,0,0,2.24-3.73V150a0.3,0.3,0,0,0-.3-0.3H88.58Zm-10,5.47L78.17,155a4.66,4.66,0,0,1-1.84-1.37h0a4.64,4.64,0,0,1-1-2.89V150a0.7,0.7,0,0,1,.7-0.7h1.75L78.3,154a4.69,4.69,0,0,0,.15.75Zm-1.9-1.78A4.2,4.2,0,0,0,78,154.46q0-.2-0.06-0.4l-0.49-4.37H76a0.3,0.3,0,0,0-.3.3v0.76a4.23,4.23,0,0,0,.92,2.64h0Z" transform="translate(-74.33 -148.31)"/></svg>