<svg id="Слой_1" data-name="Слой 1" xmlns="http://www.w3.org/2000/svg" width="22.41" height="21" viewBox="0 0 22.41 21"><defs><style>.cls-1{fill:#543019;}</style></defs><title>торт 2</title><path class="cls-1" d="M166,20.49a0.74,0.74,0,0,0-.55-0.24h-0.88v-9a2.12,2.12,0,0,0-.72-4.12h-6.56A2.53,2.53,0,0,0,157.6,6a2.61,2.61,0,0,0-1.79-2.47,2.62,2.62,0,0,1,.71-1.28l0.59-.59-1-1-0.59.59a4.05,4.05,0,0,0-1.16,2.27A2.6,2.6,0,0,0,152.42,6a2.53,2.53,0,0,0,.27,1.14h-6.56a2.12,2.12,0,0,0-.73,4.12v9h-0.88a0.72,0.72,0,0,0-.72.72,0.64,0.64,0,0,0,.45.64l21.28,0h0a0.72,0.72,0,0,0,.64-0.62A0.66,0.66,0,0,0,166,20.49ZM153.86,6A1.14,1.14,0,1,1,155,7.14,1.15,1.15,0,0,1,153.86,6Zm-7,5.38h6.28a0.21,0.21,0,0,1,.21.21V15a2.13,2.13,0,0,0,4.25,0l0-3.1a0.68,0.68,0,0,1,1.35,0v0.66a2.13,2.13,0,0,0,4.2.45v7.27l-16.3,0V11.37Zm14.9,0.23v0.93a0.68,0.68,0,1,1-1.35,0V11.88a2.13,2.13,0,1,0-4.25,0v0.27h0V15a0.68,0.68,0,0,1-1.35,0V14h0V11.6a1.66,1.66,0,0,0-1.66-1.66h-7a0.68,0.68,0,0,1,0-1.35l17.75,0a0.68,0.68,0,0,1,0,1.35h-0.47A1.66,1.66,0,0,0,161.75,11.61Z" transform="translate(-143.78 -0.63)"/></svg>